<svg width="401" height="458" viewBox="0 0 401 458" fill="none" xmlns="http://www.w3.org/2000/svg">
<path fill-rule="evenodd" clip-rule="evenodd" d="M17.4167 0H59.8409L137.114 74.2424H144.689V69.697H256.811V74.2424H262.871L341.659 0H382.568L400.75 24.2424V92.4242L371.962 153.03V201.515L359.841 225.758V281.818L302.265 365.152V393.939L252.265 433.333L235.598 457.576H165.902L149.235 433.333L99.2348 393.939V365.152L41.6591 281.818V225.758L29.5379 201.515V153.03L0.75 92.4242V24.2424L17.4167 0ZM249.235 287.879V221.212L290.144 193.939L317.417 215.152V239.394L249.235 287.879ZM111.356 193.939L84.0833 215.152V239.394L152.265 287.879V221.212L111.356 193.939ZM193.174 395.455L162.871 369.697H238.629L208.326 395.455V415.152H193.174V395.455Z" fill="#C80F2E"/>
</svg>
