<svg width="650" height="601" viewBox="0 0 650 601" fill="none" xmlns="http://www.w3.org/2000/svg">
<path d="M640.753 286.254L610.234 289.233L627.498 314.23L640.753 286.254Z" fill="#00B2FF"/>
<path d="M587.328 323.151L557.299 325.791L574.562 350.789L587.328 323.151Z" fill="#00B2FF"/>
<path d="M534.392 359.71L504.362 362.35L521.626 387.348L534.392 359.71Z" fill="#00B2FF"/>
<path d="M481.456 396.268L450.936 399.247L468.2 424.245L481.456 396.268Z" fill="#00B2FF"/>
<path d="M428.029 433.166L398 435.806L415.264 460.804L428.029 433.166Z" fill="#00B2FF"/>
<path d="M129.404 4.07038L121.239 33.6278L150.765 26.4778L129.404 4.07038Z" fill="#00B2FF"/>
<path d="M144.685 67.1749L136.38 96.1533L165.906 89.0034L144.685 67.1749Z" fill="#00B2FF"/>
<path d="M159.826 129.701L151.521 158.68L181.047 151.53L159.826 129.701Z" fill="#00B2FF"/>
<path d="M174.967 192.227L166.803 221.784L196.329 214.634L174.967 192.227Z" fill="#00B2FF"/>
<path d="M190.249 255.333L181.944 284.311L211.47 277.161L190.249 255.333Z" fill="#00B2FF"/>
<path fill-rule="evenodd" clip-rule="evenodd" d="M250.939 39.7674L289.256 51.9026L337.809 141.059L344.651 143.226L345.952 139.121L447.216 171.192L445.915 175.298L451.389 177.031L543.784 132.515L580.732 144.217L590.219 171.312L570.716 232.892L527.38 279.395L513.511 323.185L495.629 341.612L479.593 392.244L403.756 451.039L395.521 477.039L339.094 498.316L317.107 515.444L254.159 495.507L246.041 468.845L212.151 418.964L220.386 392.963L192.222 301.23L208.258 250.598L204.245 225.236L218.114 181.446L209.449 118.474L228.952 56.8949L250.939 39.7674ZM377.964 366.08L397.033 305.869L441.782 292.939L460.347 319.898L453.412 341.793L377.964 366.08ZM280.307 241.798L249.608 253.155L242.673 275.049L290.384 338.342L309.454 278.131L280.307 241.798ZM296.56 447.203L276.56 415.272L344.981 436.942L310.245 451.537L304.611 469.327L290.926 464.993L296.56 447.203Z" fill="#00B2FF"/>
<path d="M53 249.487C53 230.282 53 220.679 54.5091 212.681C61.1527 177.469 88.6953 149.926 123.907 143.283C131.905 141.774 141.508 141.774 160.713 141.774C169.128 141.774 173.335 141.774 177.378 142.152C194.811 143.782 211.347 150.631 224.826 161.805C227.952 164.397 230.927 167.372 236.877 173.322L248.852 185.296C266.605 203.049 275.481 211.925 286.109 217.839C291.948 221.087 298.143 223.653 304.57 225.485C316.266 228.819 328.818 228.819 353.924 228.819H362.056C419.341 228.819 447.981 228.819 466.6 245.563C468.313 247.104 469.942 248.734 471.481 250.446C488.226 269.063 488.226 297.705 488.226 354.989V402.909C488.226 484.976 488.226 526.011 462.731 551.504C437.237 577 396.202 577 314.136 577H227.091C145.023 577 103.99 577 78.4949 551.504C53 526.011 53 484.976 53 402.909V249.487Z" fill="white"/>
<path fill-rule="evenodd" clip-rule="evenodd" d="M278.688 331.103C278.688 323.509 284.844 317.353 292.438 317.353H384.102C391.695 317.353 397.851 323.509 397.851 331.103C397.851 338.696 391.695 344.853 384.102 344.853H292.438C284.844 344.853 278.688 338.696 278.688 331.103Z" fill="#00B2FF"/>
<mask id="mask0_336_155" style="mask-type:alpha" maskUnits="userSpaceOnUse" x="-3" y="296" width="134" height="261">
<path d="M127.5 299L0 426.5M111.562 299L0 410.562M95.625 299L0 394.625M79.6875 299L0 378.687M63.75 299L0 362.75M47.8125 299L0 346.812M31.875 299L0 330.875M15.9375 299L0 314.937M15.9375 554L127.5 442.437M31.875 554L127.5 458.375M47.8125 554L127.5 474.312M63.75 554L127.5 490.25M79.6875 554L127.5 506.187M95.625 554L127.5 522.125M111.562 554L127.5 538.062M127.5 426.5L0 554M127.5 410.562L0 538.062M127.5 394.625L0 522.125M127.5 378.687L0 506.187M127.5 362.75L0 490.25M127.5 346.812L0 474.312M127.5 330.875L0 458.375M127.5 314.937L0 442.437" stroke="#00B2FF" stroke-width="3.98437" stroke-miterlimit="10" stroke-linecap="square" stroke-linejoin="round"/>
</mask>
<g mask="url(#mask0_336_155)">
<rect y="299" width="90.1049" height="210.781" fill="#00B2FF"/>
</g>
<mask id="mask1_336_155" style="mask-type:alpha" maskUnits="userSpaceOnUse" x="319" y="470" width="261" height="134">
<path d="M577 600.5L449.5 473M577 584.562L465.438 473M577 568.625L481.375 473M577 552.687L497.313 473M577 536.75L513.25 473M577 520.812L529.188 473M577 504.875L545.125 473M577 488.937L561.063 473M322 488.937L433.563 600.5M322 504.875L417.625 600.5M322 520.812L401.688 600.5M322 536.75L385.75 600.5M322 552.687L369.813 600.5M322 568.625L353.875 600.5M322 584.562L337.938 600.5M449.5 600.5L322 473M465.438 600.5L337.938 473M481.375 600.5L353.875 473M497.313 600.5L369.813 473M513.25 600.5L385.75 473M529.188 600.5L401.688 473M545.125 600.5L417.625 473M561.063 600.5L433.563 473" stroke="#00B2FF" stroke-width="3.98437" stroke-miterlimit="10" stroke-linecap="square" stroke-linejoin="round"/>
</mask>
<g mask="url(#mask1_336_155)">
<rect x="537.919" y="472.728" width="57" height="197" transform="rotate(90 537.919 472.728)" fill="#00B2FF"/>
</g>
<path d="M403.787 86.539L408.204 91.3861M381.794 86.7459C382.873 85.635 384.282 84.3514 386.093 82.7007L401.603 68.5658C403.415 66.9151 404.823 65.6314 406.029 64.6601M381.794 86.7459C380.448 88.1323 379.615 89.2499 379.152 90.4766C378.419 92.4204 378.32 94.5461 378.87 96.5494C379.495 98.827 381.35 100.863 385.061 104.935L388.153 108.328C391.864 112.4 393.719 114.435 395.929 115.269C397.873 116.001 399.999 116.1 402.002 115.55C404.279 114.925 406.315 113.07 410.387 109.359L425.898 95.2244C429.97 91.5135 432.006 89.6583 432.839 87.4484C433.572 85.5046 433.67 83.379 433.121 81.3757C432.496 79.0981 430.64 77.0623 426.929 72.9904L423.837 69.5974C420.127 65.5254 418.271 63.4897 416.061 62.6565C414.118 61.9236 411.992 61.825 409.989 62.3747C408.724 62.7218 407.534 63.4478 406.029 64.6601M381.794 86.7459L377.313 81.8291C371.215 75.1368 371.696 64.7675 378.388 58.6686C385.08 52.5699 395.45 53.051 401.549 59.7433L406.029 64.6601" stroke="#00B2FF" stroke-width="6.55782" stroke-linecap="round" stroke-linejoin="round"/>
<path d="M204.789 524.375L202.812 516.411C202.283 515.248 202.424 513.886 203.181 512.861C203.939 511.834 205.197 511.299 206.464 511.463L214.659 511.003C216.097 511.191 217.478 510.373 218.012 509.022C218.54 507.67 218.084 506.131 216.902 505.287L211.206 499.376C210.167 498.638 209.608 497.391 209.752 496.118C209.895 494.85 210.716 493.76 211.894 493.27L218.762 488.774C220.103 488.216 220.89 486.817 220.673 485.382C220.457 483.945 219.293 482.842 217.847 482.704L209.96 480.435C208.689 480.311 207.582 479.508 207.074 478.338C206.562 477.167 206.727 475.813 207.501 474.798L211.203 467.471C212.083 466.318 212.068 464.709 211.161 463.577C210.257 462.442 208.696 462.067 207.374 462.671L199.409 464.649C198.248 465.178 196.888 465.037 195.862 464.28C194.834 463.521 194.298 462.262 194.46 460.996L194.004 452.803C194.193 451.363 193.372 449.98 192.022 449.45C190.672 448.917 189.13 449.377 188.289 450.558L182.378 456.255C181.638 457.294 180.39 457.849 179.12 457.705C177.852 457.565 176.759 456.743 176.268 455.566L171.773 448.697C171.216 447.356 169.818 446.569 168.382 446.786C166.947 447.001 165.843 448.166 165.703 449.611L163.432 457.501C163.311 458.77 162.51 459.876 161.339 460.385C160.167 460.898 158.813 460.734 157.798 459.956L150.472 456.255C149.318 455.375 147.712 455.391 146.577 456.296C145.443 457.204 145.066 458.763 145.67 460.082L147.647 468.05C148.178 469.213 148.035 470.572 147.278 471.598C146.521 472.624 145.264 473.162 143.995 472.998L135.8 473.454C134.36 473.268 132.981 474.089 132.448 475.439C131.919 476.788 132.376 478.329 133.557 479.172L139.254 485.079C140.295 485.823 140.85 487.069 140.706 488.339C140.564 489.609 139.744 490.701 138.566 491.191L131.697 495.685C130.357 496.244 129.569 497.642 129.785 499.078C130.002 500.514 131.165 501.618 132.611 501.756L140.499 504.026C141.77 504.148 142.876 504.951 143.386 506.119C143.897 507.291 143.735 508.647 142.958 509.662L139.256 516.99C138.374 518.143 138.391 519.749 139.297 520.883C140.203 522.015 141.765 522.393 143.084 521.79L151.049 519.81C152.211 519.282 153.572 519.423 154.6 520.182C155.627 520.939 156.161 522.197 155.998 523.463L156.454 531.658C156.268 533.098 157.087 534.477 158.436 535.01C159.786 535.541 161.326 535.083 162.169 533.902L168.081 528.205C168.824 527.165 170.069 526.608 171.339 526.751C172.606 526.895 173.699 527.715 174.191 528.895L178.684 535.762C179.242 537.104 180.64 537.89 182.076 537.674C183.512 537.457 184.617 536.293 184.755 534.847L187.027 526.96C187.148 525.69 187.949 524.583 189.118 524.072C190.291 523.562 191.648 523.727 192.662 524.5L199.987 528.203C201.141 529.085 202.747 529.066 203.882 528.164C205.016 527.258 205.391 525.696 204.789 524.375ZM160.212 479.618C160.52 479.199 160.973 478.926 161.488 478.848L166.183 478.139L165.436 473.182C165.275 472.124 166.008 471.131 167.067 470.972C167.582 470.896 168.094 471.024 168.511 471.331C168.927 471.639 169.2 472.092 169.277 472.604L170.025 477.56L174.983 476.815C175.495 476.738 176.007 476.864 176.423 477.172C176.841 477.48 177.114 477.931 177.192 478.444C177.269 478.959 177.144 479.472 176.835 479.89C176.526 480.307 176.074 480.578 175.561 480.656L170.603 481.401L171.309 486.098C171.387 486.613 171.26 487.126 170.95 487.544C170.643 487.961 170.19 488.233 169.677 488.308C169.164 488.385 168.651 488.258 168.235 487.951C167.818 487.643 167.546 487.191 167.468 486.677L166.762 481.982L162.067 482.69C161.552 482.766 161.04 482.64 160.623 482.333C160.206 482.024 159.934 481.572 159.856 481.058C159.778 480.547 159.904 480.035 160.212 479.618ZM180.213 514.319C179.617 513.88 179.145 513.335 178.833 512.732C178.585 512.252 178.422 511.73 178.319 511.09C178.271 510.756 178.241 510.453 178.214 510.173C178.166 509.698 178.126 509.289 178.025 509.023C177.928 508.765 177.82 508.589 177.505 508.349C177.248 508.162 177.074 508.11 176.924 508.083C176.743 508.049 176.53 508.052 176.232 508.093C176.032 508.119 175.821 508.165 175.591 508.215C175.044 508.332 174.364 508.478 173.567 508.451C172.94 508.429 171.997 508.255 171.053 507.559L171.013 507.529C170.421 507.092 169.949 506.547 169.638 505.945C169.389 505.465 169.228 504.943 169.128 504.305C169.079 503.97 169.049 503.663 169.02 503.38C168.973 502.909 168.934 502.502 168.833 502.24C168.734 501.979 168.628 501.805 168.313 501.565C168.074 501.391 167.907 501.332 167.73 501.3C167.552 501.266 167.341 501.27 167.046 501.311C166.843 501.337 166.63 501.384 166.399 501.435C165.854 501.552 165.175 501.698 164.381 501.672C163.756 501.649 162.812 501.476 161.867 500.779C161.237 500.313 160.765 499.769 160.454 499.167C160.205 498.686 160.039 498.149 159.944 497.524C159.894 497.185 159.863 496.871 159.834 496.581C159.789 496.119 159.749 495.721 159.651 495.463C159.555 495.203 159.449 495.03 159.133 494.789C158.878 494.604 158.702 494.551 158.55 494.523C158.373 494.491 158.156 494.495 157.866 494.536C157.661 494.562 157.446 494.609 157.215 494.659C156.67 494.776 155.994 494.922 155.201 494.896C154.573 494.873 153.63 494.699 152.687 494.003C151.939 493.451 151.787 492.442 152.313 491.729C152.84 491.016 153.849 490.864 154.562 491.39C154.82 491.581 154.999 491.634 155.153 491.663C155.33 491.695 155.548 491.691 155.832 491.649C156.043 491.622 156.258 491.576 156.489 491.526C157.032 491.41 157.707 491.265 158.499 491.29C159.125 491.312 160.072 491.486 161.027 492.191C161.643 492.645 162.117 493.194 162.428 493.798C162.749 494.415 162.873 495.028 162.938 495.435C162.987 495.773 163.017 496.081 163.044 496.365C163.09 496.834 163.131 497.24 163.23 497.503C163.328 497.761 163.434 497.934 163.746 498.169C164 498.357 164.176 498.409 164.329 498.437C164.506 498.47 164.724 498.466 165.015 498.424C165.22 498.397 165.434 498.352 165.666 498.302C166.209 498.186 166.885 498.04 167.679 498.066C168.305 498.087 169.252 498.261 170.207 498.966C170.82 499.419 171.293 499.967 171.605 500.572C171.928 501.189 172.054 501.801 172.12 502.207C172.169 502.549 172.2 502.859 172.228 503.144C172.274 503.612 172.314 504.018 172.412 504.281C172.51 504.539 172.617 504.713 172.931 504.949C173.168 505.124 173.34 505.185 173.523 505.22C173.695 505.252 173.913 505.248 174.202 505.206C174.411 505.179 174.624 505.133 174.857 505.084C175.4 504.968 176.076 504.825 176.869 504.849C177.497 504.872 178.444 505.046 179.398 505.751C180.013 506.204 180.487 506.753 180.799 507.358C181.122 507.978 181.247 508.589 181.313 508.993C181.362 509.333 181.393 509.642 181.42 509.926C181.467 510.396 181.507 510.803 181.607 511.067C181.703 511.324 181.81 511.499 182.126 511.736C182.835 512.259 182.986 513.267 182.46 513.98C181.934 514.693 180.926 514.846 180.213 514.319ZM192.065 501.417C192.222 502.477 191.49 503.468 190.434 503.627C189.921 503.705 189.409 503.579 188.991 503.271C188.574 502.963 188.302 502.51 188.224 501.996L187.517 497.301L182.821 498.009C182.308 498.086 181.795 497.959 181.378 497.651C180.96 497.343 180.688 496.891 180.611 496.377C180.532 495.866 180.659 495.353 180.966 494.937C181.274 494.517 181.727 494.245 182.242 494.167L186.939 493.458L186.191 488.502C186.114 487.988 186.24 487.476 186.549 487.059C186.857 486.641 187.309 486.369 187.823 486.292C188.335 486.215 188.848 486.342 189.265 486.65C189.683 486.958 189.956 487.41 190.034 487.924L190.78 492.88L195.737 492.133C196.251 492.056 196.763 492.184 197.18 492.492C197.597 492.8 197.87 493.253 197.947 493.765C198.105 494.823 197.374 495.814 196.316 495.975L191.359 496.721L192.065 501.417Z" fill="#00B2FF"/>
<path d="M558.123 429.883C559.983 425.721 562 421.198 562.559 419.902C563.924 416.74 561.268 412.687 557.156 412.875C554.999 412.976 553.655 412.188 552.97 411.73C552.285 411.272 551.424 410.917 550.311 408.301C548.699 404.515 544.151 403.526 541.752 405.996C540.769 407.009 537.361 410.603 534.228 413.913C525.837 409.708 519.324 408.085 517.876 410.251C515.764 413.411 525.221 423.436 538.995 432.641C552.771 441.848 565.649 446.75 567.761 443.59C569.209 441.423 565.217 436.027 558.123 429.883Z" fill="#00B2FF"/>
<path d="M523.987 424.122L519.089 433.043C522.506 436.274 526.192 439.23 530.03 441.917L533.685 440.587L533.855 444.472C537.805 446.991 541.947 449.266 546.239 451.187L552.608 443.249C547.285 441.011 542.189 438.19 537.418 435.001C532.646 431.812 528.092 428.185 523.987 424.122ZM526.885 436.144C523.727 433.81 526.14 429.759 526.14 429.759L532.504 436.08C532.504 436.08 530.042 438.478 526.885 436.144ZM546.576 443.416C546.576 443.416 543.755 447.196 540.392 445.17C537.027 443.146 538.301 439.954 538.301 439.954L546.576 443.416Z" fill="#00B2FF"/>
</svg>
