<svg width="671" height="601" viewBox="0 0 671 601" fill="none" xmlns="http://www.w3.org/2000/svg">
<path d="M661.753 286.254L631.234 289.233L648.498 314.23L661.753 286.254Z" fill="#13CE67"/>
<path d="M608.328 323.151L578.299 325.791L595.562 350.789L608.328 323.151Z" fill="#13CE67"/>
<path d="M555.392 359.71L525.363 362.35L542.626 387.348L555.392 359.71Z" fill="#13CE67"/>
<path d="M502.456 396.268L471.937 399.247L489.2 424.245L502.456 396.268Z" fill="#13CE67"/>
<path d="M449.029 433.166L419 435.806L436.264 460.804L449.029 433.166Z" fill="#13CE67"/>
<path d="M150.404 4.07038L142.239 33.6278L171.765 26.4778L150.404 4.07038Z" fill="#13CE67"/>
<path d="M165.685 67.1749L157.38 96.1533L186.906 89.0034L165.685 67.1749Z" fill="#13CE67"/>
<path d="M180.826 129.701L172.521 158.68L202.047 151.53L180.826 129.701Z" fill="#13CE67"/>
<path d="M195.967 192.227L187.803 221.784L217.329 214.634L195.967 192.227Z" fill="#13CE67"/>
<path d="M211.249 255.333L202.944 284.311L232.47 277.161L211.249 255.333Z" fill="#13CE67"/>
<path fill-rule="evenodd" clip-rule="evenodd" d="M271.939 39.7674L310.256 51.9026L358.809 141.059L365.651 143.226L366.952 139.121L468.216 171.192L466.915 175.298L472.389 177.031L564.784 132.515L601.732 144.217L611.219 171.312L591.716 232.892L548.38 279.395L534.511 323.185L516.629 341.612L500.593 392.244L424.756 451.039L416.521 477.039L360.094 498.316L338.107 515.444L275.159 495.507L267.041 468.845L233.151 418.964L241.386 392.963L213.222 301.23L229.258 250.598L225.245 225.236L239.114 181.446L230.449 118.474L249.952 56.8949L271.939 39.7674ZM398.964 366.08L418.033 305.869L462.782 292.939L481.347 319.898L474.412 341.793L398.964 366.08ZM301.307 241.798L270.608 253.155L263.673 275.049L311.384 338.342L330.454 278.131L301.307 241.798ZM317.56 447.203L297.56 415.272L365.981 436.942L331.245 451.537L325.611 469.327L311.926 464.993L317.56 447.203Z" fill="#13CE67"/>
<path d="M74 249.487C74 230.282 74 220.679 75.5091 212.681C82.1527 177.469 109.695 149.926 144.907 143.283C152.905 141.774 162.508 141.774 181.713 141.774C190.128 141.774 194.335 141.774 198.378 142.152C215.811 143.782 232.347 150.631 245.826 161.805C248.952 164.397 251.927 167.372 257.877 173.322L269.852 185.296C287.605 203.049 296.481 211.925 307.109 217.839C312.948 221.087 319.143 223.653 325.57 225.485C337.266 228.819 349.818 228.819 374.924 228.819H383.056C440.341 228.819 468.981 228.819 487.6 245.563C489.313 247.104 490.942 248.734 492.481 250.446C509.226 269.063 509.226 297.705 509.226 354.989V402.909C509.226 484.976 509.226 526.011 483.731 551.504C458.237 577 417.202 577 335.136 577H248.091C166.023 577 124.99 577 99.4949 551.504C74 526.011 74 484.976 74 402.909V249.487Z" fill="white"/>
<path fill-rule="evenodd" clip-rule="evenodd" d="M299.688 331.103C299.688 323.509 305.845 317.353 313.438 317.353H405.102C412.695 317.353 418.851 323.509 418.851 331.103C418.851 338.696 412.695 344.853 405.102 344.853H313.438C305.845 344.853 299.688 338.696 299.688 331.103Z" fill="#13CE67"/>
<mask id="mask0_336_157" style="mask-type:alpha" maskUnits="userSpaceOnUse" x="18" y="296" width="134" height="261">
<path d="M148.5 299L21 426.5M132.562 299L21 410.562M116.625 299L21 394.625M100.687 299L21 378.687M84.75 299L21 362.75M68.8125 299L21 346.812M52.875 299L21 330.875M36.9375 299L21 314.937M36.9375 554L148.5 442.437M52.875 554L148.5 458.375M68.8125 554L148.5 474.312M84.75 554L148.5 490.25M100.687 554L148.5 506.187M116.625 554L148.5 522.125M132.562 554L148.5 538.062M148.5 426.5L21 554M148.5 410.562L21 538.062M148.5 394.625L21 522.125M148.5 378.687L21 506.187M148.5 362.75L21 490.25M148.5 346.812L21 474.312M148.5 330.875L21 458.375M148.5 314.937L21 442.437" stroke="#00B2FF" stroke-width="3.98437" stroke-miterlimit="10" stroke-linecap="square" stroke-linejoin="round"/>
</mask>
<g mask="url(#mask0_336_157)">
<rect x="21" y="299" width="90.1049" height="210.781" fill="#13CE67"/>
</g>
<mask id="mask1_336_157" style="mask-type:alpha" maskUnits="userSpaceOnUse" x="340" y="470" width="261" height="134">
<path d="M598 600.5L470.5 473M598 584.562L486.438 473M598 568.625L502.375 473M598 552.687L518.313 473M598 536.75L534.25 473M598 520.812L550.188 473M598 504.875L566.125 473M598 488.937L582.063 473M343 488.937L454.563 600.5M343 504.875L438.625 600.5M343 520.812L422.688 600.5M343 536.75L406.75 600.5M343 552.687L390.813 600.5M343 568.625L374.875 600.5M343 584.562L358.938 600.5M470.5 600.5L343 473M486.438 600.5L358.938 473M502.375 600.5L374.875 473M518.313 600.5L390.813 473M534.25 600.5L406.75 473M550.188 600.5L422.688 473M566.125 600.5L438.625 473M582.063 600.5L454.563 473" stroke="#00B2FF" stroke-width="3.98437" stroke-miterlimit="10" stroke-linecap="square" stroke-linejoin="round"/>
</mask>
<g mask="url(#mask1_336_157)">
<rect x="558.919" y="472.728" width="57" height="197" transform="rotate(90 558.919 472.728)" fill="#13CE67"/>
</g>
<path d="M239.533 444.508C239.431 444.27 239.567 443.929 239.465 443.69C239.465 443.69 239.465 443.69 239.364 443.452C239.364 443.452 239.364 443.452 239.262 443.213C239.16 442.974 239.058 442.736 238.956 442.497C238.956 442.497 238.956 442.497 238.854 442.258C238.752 442.02 238.411 441.883 238.309 441.644C237.969 441.507 237.969 441.507 237.628 441.371L204.237 435.879C203.318 435.707 202.124 436.217 201.612 437L179.761 471.734L179.624 472.075C179.624 472.075 179.624 472.075 179.385 472.177C179.249 472.518 179.351 472.756 179.214 473.097C179.214 473.097 179.214 473.097 179.316 473.336C179.144 474.256 179.246 474.494 179.348 474.733L185.465 489.053L191.583 503.373C191.889 504.089 192.774 504.84 193.592 504.773L226.982 510.265C227.561 510.3 228.141 510.335 228.379 510.233C228.857 510.029 229.232 509.586 229.608 509.144L251.459 474.409C251.732 473.728 252.006 473.047 251.7 472.331C251.394 471.615 250.849 471.001 250.168 470.727C247.103 469.497 245.3 466.598 245.508 463.122L245.65 458.828C245.548 458.59 245.685 458.249 245.583 458.011L245.481 457.772C245.379 457.533 245.175 457.056 244.834 456.919L244.732 456.68C244.63 456.442 244.29 456.305 243.949 456.168C240.883 454.938 239.081 452.039 239.289 448.563L239.533 444.508ZM239.549 459.741L220.019 490.662L189.729 485.821L186.059 477.229L214.85 481.863C215.429 481.898 216.008 481.933 216.247 481.831C216.724 481.627 217.1 481.184 217.475 480.742L234.819 453.295C235.6 455.784 237.097 457.966 239.549 459.741ZM226.136 504.982L195.846 500.141L192.176 491.549L220.967 496.183C221.546 496.218 222.125 496.253 222.364 496.151C222.842 495.947 223.217 495.505 223.592 495.062L240.937 467.615C241.819 470.343 243.418 472.764 245.768 474.3L226.136 504.982Z" fill="#13CE67"/>
<path fill-rule="evenodd" clip-rule="evenodd" d="M64.8981 193.393C63.7913 194.324 62.1391 194.176 61.2037 193.064C60.2683 191.951 60.4091 190.301 61.5159 189.37C62.6227 188.44 64.273 188.584 65.2084 189.697C66.1438 190.81 66.0049 192.463 64.8981 193.393ZM61.7393 202.092C73.3999 192.289 68.399 187.818 68.399 187.818L63.9585 182.565L52.8329 191.918L51.5038 190.337L67.0474 177.269C67.0474 177.269 75.2242 171.849 65.2823 160.023C55.3404 148.198 49.1808 154.088 49.1808 154.088L45.2932 157.356L49.9084 162.846C49.9084 162.846 55.6187 169.214 49.0031 174.776L37.9671 184.054C37.9671 184.054 31.6844 189.168 36.8329 195.292L45.3441 205.416C45.3441 205.416 49.5552 212.336 61.7393 202.092ZM19.6411 165.142C20.7479 164.211 22.3978 164.36 23.3332 165.473C24.2686 166.586 24.1301 168.234 23.0233 169.165C21.9165 170.095 20.2662 169.951 19.3308 168.838C18.3954 167.725 18.5343 166.072 19.6411 165.142ZM22.7976 156.445C11.1393 166.246 16.1403 170.717 16.1403 170.717L20.5808 175.97L31.7063 166.617L33.0355 168.198L17.4895 181.268C17.4895 181.268 9.31273 186.688 19.2546 198.513C29.1966 210.339 35.3584 204.447 35.3584 204.447L39.2438 201.18L34.6286 195.691C34.6286 195.691 28.9182 189.323 35.5361 183.759L46.5698 174.483C46.5698 174.483 52.8526 169.369 47.704 163.245L39.1928 153.121C39.1928 153.121 34.9817 146.201 22.7976 156.445Z" fill="#13CE67"/>
<path fill-rule="evenodd" clip-rule="evenodd" d="M457.118 70.1652C450.953 72.2207 447.646 78.8363 441.031 92.0674C434.417 105.298 431.11 111.914 433.165 118.079C435.221 124.244 441.836 127.552 455.067 134.166C468.298 140.78 474.914 144.088 481.079 142.032C487.244 139.977 490.552 133.361 497.166 120.13C503.781 106.899 507.088 100.283 505.032 94.1182C502.977 87.953 496.361 84.6457 483.13 78.0313C469.899 71.4169 463.283 68.1097 457.118 70.1652ZM456.928 91.3136C458.119 90.7925 459.506 91.3354 460.027 92.5262L460.48 93.5606C461.471 95.8243 462.314 97.7513 462.761 99.3592C463.235 101.067 463.388 102.835 462.523 104.565C461.657 106.296 460.152 107.234 458.501 107.88C456.947 108.488 454.899 108.97 452.494 109.535L451.395 109.794C450.13 110.092 448.863 109.308 448.565 108.043C448.267 106.777 449.051 105.51 450.316 105.213L451.249 104.993C453.867 104.377 455.582 103.967 456.787 103.496C457.931 103.049 458.192 102.702 458.312 102.461C458.433 102.219 458.554 101.802 458.225 100.619C457.879 99.3726 457.178 97.7546 456.099 95.2902L455.715 94.4131C455.194 93.2223 455.737 91.8346 456.928 91.3136ZM481.028 122.587C480.447 123.749 479.033 124.221 477.871 123.64L463.837 116.624C462.674 116.043 462.203 114.629 462.784 113.467C463.366 112.304 464.779 111.833 465.942 112.414L479.975 119.43C481.138 120.011 481.609 121.424 481.028 122.587Z" fill="#13CE67"/>
</svg>
