<svg width="650" height="601" viewBox="0 0 650 601" fill="none" xmlns="http://www.w3.org/2000/svg">
<path d="M640.753 286.254L610.234 289.233L627.498 314.23L640.753 286.254Z" fill="#7554F6"/>
<path d="M587.328 323.151L557.299 325.791L574.562 350.789L587.328 323.151Z" fill="#7554F6"/>
<path d="M534.392 359.71L504.363 362.35L521.626 387.348L534.392 359.71Z" fill="#7554F6"/>
<path d="M481.456 396.268L450.937 399.247L468.2 424.245L481.456 396.268Z" fill="#7554F6"/>
<path d="M428.029 433.166L398 435.806L415.264 460.804L428.029 433.166Z" fill="#7554F6"/>
<path d="M129.404 4.07038L121.239 33.6278L150.765 26.4778L129.404 4.07038Z" fill="#7554F6"/>
<path d="M144.685 67.1749L136.38 96.1533L165.906 89.0034L144.685 67.1749Z" fill="#7554F6"/>
<path d="M159.826 129.701L151.521 158.68L181.047 151.53L159.826 129.701Z" fill="#7554F6"/>
<path d="M174.967 192.227L166.803 221.784L196.329 214.634L174.967 192.227Z" fill="#7554F6"/>
<path d="M190.249 255.333L181.944 284.311L211.47 277.161L190.249 255.333Z" fill="#7554F6"/>
<path fill-rule="evenodd" clip-rule="evenodd" d="M250.939 39.7674L289.256 51.9026L337.809 141.059L344.651 143.226L345.952 139.121L447.216 171.192L445.915 175.298L451.389 177.031L543.784 132.515L580.732 144.217L590.219 171.312L570.716 232.892L527.38 279.395L513.511 323.185L495.629 341.612L479.593 392.244L403.756 451.039L395.521 477.039L339.094 498.316L317.107 515.444L254.159 495.507L246.041 468.845L212.151 418.964L220.386 392.963L192.222 301.23L208.258 250.598L204.245 225.236L218.114 181.446L209.449 118.474L228.952 56.8949L250.939 39.7674ZM377.964 366.08L397.033 305.869L441.782 292.939L460.347 319.898L453.412 341.793L377.964 366.08ZM280.307 241.798L249.608 253.155L242.673 275.049L290.384 338.342L309.454 278.131L280.307 241.798ZM296.56 447.203L276.56 415.272L344.981 436.942L310.245 451.537L304.611 469.327L290.926 464.993L296.56 447.203Z" fill="#7554F6"/>
<path d="M53 249.487C53 230.282 53 220.679 54.5091 212.681C61.1527 177.469 88.6953 149.926 123.907 143.283C131.905 141.774 141.508 141.774 160.713 141.774C169.128 141.774 173.335 141.774 177.378 142.152C194.811 143.782 211.347 150.631 224.826 161.805C227.952 164.397 230.927 167.372 236.877 173.322L248.852 185.296C266.605 203.049 275.481 211.925 286.109 217.839C291.948 221.087 298.143 223.653 304.57 225.485C316.266 228.819 328.818 228.819 353.924 228.819H362.056C419.341 228.819 447.981 228.819 466.6 245.563C468.313 247.104 469.942 248.734 471.481 250.446C488.226 269.063 488.226 297.705 488.226 354.989V402.909C488.226 484.976 488.226 526.011 462.731 551.504C437.237 577 396.202 577 314.136 577H227.091C145.023 577 103.99 577 78.4949 551.504C53 526.011 53 484.976 53 402.909V249.487Z" fill="white"/>
<path fill-rule="evenodd" clip-rule="evenodd" d="M278.688 331.103C278.688 323.509 284.845 317.353 292.438 317.353H384.102C391.695 317.353 397.851 323.509 397.851 331.103C397.851 338.696 391.695 344.853 384.102 344.853H292.438C284.845 344.853 278.688 338.696 278.688 331.103Z" fill="#7554F6"/>
<mask id="mask0_336_156" style="mask-type:alpha" maskUnits="userSpaceOnUse" x="-3" y="296" width="134" height="261">
<path d="M127.5 299L0 426.5M111.562 299L0 410.562M95.625 299L0 394.625M79.6875 299L0 378.687M63.75 299L0 362.75M47.8125 299L0 346.812M31.875 299L0 330.875M15.9375 299L0 314.937M15.9375 554L127.5 442.437M31.875 554L127.5 458.375M47.8125 554L127.5 474.312M63.75 554L127.5 490.25M79.6875 554L127.5 506.187M95.625 554L127.5 522.125M111.562 554L127.5 538.062M127.5 426.5L0 554M127.5 410.562L0 538.062M127.5 394.625L0 522.125M127.5 378.687L0 506.187M127.5 362.75L0 490.25M127.5 346.812L0 474.312M127.5 330.875L0 458.375M127.5 314.937L0 442.437" stroke="#00B2FF" stroke-width="3.98437" stroke-miterlimit="10" stroke-linecap="square" stroke-linejoin="round"/>
</mask>
<g mask="url(#mask0_336_156)">
<rect y="299" width="90.1049" height="210.781" fill="#7554F6"/>
</g>
<mask id="mask1_336_156" style="mask-type:alpha" maskUnits="userSpaceOnUse" x="319" y="470" width="261" height="134">
<path d="M577 600.5L449.5 473M577 584.562L465.438 473M577 568.625L481.375 473M577 552.687L497.313 473M577 536.75L513.25 473M577 520.812L529.188 473M577 504.875L545.125 473M577 488.937L561.063 473M322 488.937L433.563 600.5M322 504.875L417.625 600.5M322 520.812L401.688 600.5M322 536.75L385.75 600.5M322 552.687L369.813 600.5M322 568.625L353.875 600.5M322 584.562L337.938 600.5M449.5 600.5L322 473M465.438 600.5L337.938 473M481.375 600.5L353.875 473M497.313 600.5L369.813 473M513.25 600.5L385.75 473M529.188 600.5L401.688 473M545.125 600.5L417.625 473M561.063 600.5L433.563 473" stroke="#00B2FF" stroke-width="3.98437" stroke-miterlimit="10" stroke-linecap="square" stroke-linejoin="round"/>
</mask>
<g mask="url(#mask1_336_156)">
<rect x="537.919" y="472.728" width="57" height="197" transform="rotate(90 537.919 472.728)" fill="#7554F6"/>
</g>
<path fill-rule="evenodd" clip-rule="evenodd" d="M57.9331 149.616C59.1103 150.598 60.2381 151.455 61.2842 152.195C53.8655 153.427 46.3812 151.918 40.1218 148.213C42.1997 145.602 45.0114 142.628 48.692 139.793C51.7485 143.938 54.9976 147.168 57.9331 149.616ZM61.9614 144.786C59.4113 142.66 56.5838 139.859 53.9074 136.267C56.0222 135.019 58.3464 133.851 60.8945 132.816C63.4422 131.781 65.9228 130.999 68.3084 130.419C68.8942 134.86 68.8197 138.839 68.474 142.141C68.1971 144.79 67.7462 146.997 67.3236 148.65C65.8683 147.759 64.0061 146.491 61.9614 144.786ZM47.4206 124.711C48.342 126.98 49.3692 129.072 50.4641 130.996C52.8987 129.543 55.5807 128.186 58.5282 126.989C61.4752 125.792 64.3445 124.895 67.1023 124.24C66.5456 122.097 65.8239 119.881 64.9025 117.612C63.981 115.343 62.954 113.252 61.8589 111.327C59.4247 112.779 56.7427 114.137 53.7956 115.334C50.8482 116.531 47.9787 117.427 45.2208 118.083C45.7772 120.226 46.4991 122.442 47.4206 124.711ZM39.0154 119.203C39.6535 121.746 40.4975 124.379 41.5932 127.077C42.689 129.776 43.9197 132.252 45.2346 134.519C40.8266 137.856 37.4903 141.393 35.0537 144.482C31.6488 141.404 28.8675 137.53 27.025 132.993C25.1824 128.455 24.4756 123.739 24.771 119.159C28.6708 119.675 33.5283 119.884 39.0154 119.203ZM44.0145 111.904C46.4006 111.324 48.8813 110.541 51.4293 109.507C53.977 108.472 56.3013 107.304 58.4158 106.056C55.7393 102.464 52.9117 99.6635 50.3616 97.537C48.317 95.8318 46.4547 94.5634 44.9995 93.6734C44.5767 95.326 44.126 97.5336 43.849 100.181C43.5033 103.484 43.4289 107.463 44.0145 111.904ZM67.0885 107.804C68.4034 110.072 69.6342 112.548 70.7298 115.246C71.8255 117.944 72.6693 120.577 73.3074 123.119C78.7943 122.439 83.6518 122.648 87.5521 123.164C87.8473 118.584 87.1404 113.867 85.298 109.33C83.4557 104.793 80.6742 100.919 77.2696 97.8414C74.8332 100.93 71.4968 104.467 67.0885 107.804ZM72.2013 94.1108C70.1232 96.722 67.3115 99.6953 63.6313 102.53C60.5747 98.3851 57.3256 95.1548 54.3901 92.7067C53.2127 91.7251 52.085 90.8683 51.0389 90.1276C58.4578 88.8959 65.9422 90.4054 72.2013 94.1108ZM37.8173 113.012C33.2023 113.546 29.1137 113.374 25.8034 112.951C27.7075 105.931 32.0207 99.6311 38.1974 95.342C37.9643 96.6023 37.7532 98.0027 37.5935 99.5271C37.1959 103.329 37.1186 107.91 37.8173 113.012ZM74.5058 129.31C75.2045 134.413 75.1273 138.994 74.7296 142.796C74.5698 144.32 74.3588 145.721 74.1252 146.981C80.3026 142.692 84.6157 136.392 86.5199 129.371C83.2097 128.948 79.1211 128.777 74.5058 129.31ZM70.3592 156.125C89.6693 148.284 98.9666 126.274 91.1254 106.964C83.2842 87.6538 61.274 78.3564 41.9638 86.1977C22.6539 94.0388 13.3565 116.049 21.1977 135.359C29.0389 154.669 51.0492 163.966 70.3592 156.125Z" fill="#7554F6"/>
<path d="M444.485 402.08L410.224 383.866L407.156 390.978L433.478 404.968L429.062 411.677L411.799 402.504L408.869 409.525L424.941 418.064L419.123 426.719L410.447 424.791L403.881 418.602L406.307 412.856L399.52 409.25L394.949 419.672L406.804 431.648L422.886 435.091L444.482 402.081L444.485 402.08ZM406.151 367L460.746 396.007L425.995 449.429L400.238 443.867L381.338 425.697L406.151 367Z" fill="#7554F6"/>
<path d="M432.549 97.5111C422.304 101.66 417.363 113.327 421.511 123.571C425.66 133.815 437.327 138.756 447.571 134.608C457.815 130.459 462.757 118.793 458.608 108.548C454.46 98.3041 442.793 93.3627 432.549 97.5111ZM433.513 114.25C433.524 114.277 433.522 114.305 433.509 114.329L429.86 120.326L436.654 122.096C436.679 122.101 436.701 122.122 436.711 122.147L437.682 124.544C437.694 124.573 437.69 124.606 437.671 124.629C437.663 124.639 437.654 124.647 437.641 124.653C437.627 124.658 437.611 124.659 437.595 124.654L427.812 122.107C427.786 122.1 427.763 122.081 427.753 122.055L427.144 120.55C427.133 120.524 427.136 120.494 427.149 120.472L432.404 111.835C432.412 111.821 432.424 111.81 432.438 111.805C432.451 111.799 432.463 111.798 432.476 111.8C432.506 111.804 432.531 111.824 432.543 111.855L433.513 114.25ZM441.856 124.137C441.859 124.174 441.841 124.206 441.809 124.219L439.708 125.07C439.684 125.079 439.657 125.075 439.634 125.06C439.613 125.045 439.598 125.02 439.596 124.993L438.262 107.981C438.259 107.945 438.278 107.913 438.309 107.901L440.412 107.05C440.434 107.04 440.462 107.043 440.484 107.059C440.505 107.074 440.52 107.099 440.522 107.127L441.856 124.137ZM453.069 111.803C453.079 111.829 453.078 111.858 453.064 111.881L447.81 120.518C447.801 120.532 447.79 120.543 447.775 120.549C447.763 120.554 447.75 120.554 447.737 120.553C447.707 120.549 447.682 120.528 447.67 120.499L446.7 118.103C446.69 118.077 446.691 118.047 446.705 118.025L450.353 112.027L443.56 110.259C443.534 110.252 443.513 110.232 443.502 110.206L442.532 107.81C442.52 107.779 442.523 107.747 442.542 107.724C442.55 107.713 442.56 107.706 442.572 107.701C442.587 107.695 442.602 107.694 442.618 107.698L452.402 110.246C452.428 110.252 452.449 110.272 452.46 110.299L453.069 111.803Z" fill="#7554F6"/>
</svg>
